<?xml version="1.0" encoding="UTF-8" standalone="no"?>
<svg width="54px" height="54px" viewBox="0 0 54 54" version="1.1" xmlns="http://www.w3.org/2000/svg" xmlns:xlink="http://www.w3.org/1999/xlink" xmlns:sketch="http://www.bohemiancoding.com/sketch/ns">
    <!-- Generator: Sketch 3.5.1 (25234) - http://www.bohemiancoding.com/sketch -->
    <title>46 - Right (Outline)</title>
    <desc>Created with Sketch.</desc>
    <defs></defs>
    <g id="Page-1" stroke="none" stroke-width="1" fill="none" fill-rule="evenodd" sketch:type="MSPage">
        <g id="Icons" sketch:type="MSArtboardGroup" transform="translate(-603.000000, -1680.000000)" stroke="#d6242d" stroke-width="2" stroke-linejoin="round">
            <g id="46---Right-(Outline)" sketch:type="MSLayerGroup" transform="translate(604.000000, 1681.000000)">
                <path d="M26,52 L26,52 C11.641,52 0,40.359 0,26 C0,11.641 11.641,0 26,0 C40.359,0 52,11.641 52,26 C52,40.359 40.359,52 26,52 L26,52 Z" id="Path" sketch:type="MSShapeGroup"></path>
                <path d="M35.144,27.017 L20.043,35.736 C19.579,36.004 19,35.669 19,35.134 L19,17.696 C19,17.161 19.579,16.827 20.043,17.094 L35.144,25.813 C35.608,26.08 35.608,26.75 35.144,27.017 L35.144,27.017 Z" id="Path" sketch:type="MSShapeGroup"></path>
            </g>
        </g>
    </g>
</svg>